<svg width="395" height="66" viewBox="0 0 395 66" fill="none" xmlns="http://www.w3.org/2000/svg">
<path d="M78.1657 39.0615C76.0837 40.5115 73.6075 41.2402 70.5811 41.2774C67.116 41.3666 64.0078 40.2215 61.8217 38.0577C59.7991 36.05 58.7581 33.3954 58.8027 30.3616C58.8325 27.2013 60.0296 24.3237 62.1712 22.2565C64.2829 20.2042 67.2052 19.1111 70.4027 19.1706C72.797 19.2078 74.299 19.6093 76.3513 20.7767L77.3552 21.3419V17.1034L76.9388 16.9324C74.6188 15.9583 73.035 15.7724 70.358 15.7278C65.7329 15.6906 61.554 17.2968 58.5871 20.2488C55.9176 22.9108 54.4602 26.4949 54.4751 30.3393C54.4899 34.3249 56.0366 37.9759 58.825 40.6305C61.8366 43.5007 66.0452 44.9656 70.6629 44.7648C70.6555 44.7648 71.0347 44.7574 71.0347 44.7574C73.4142 44.6905 74.9906 44.6458 77.3477 43.7907C77.3552 43.7907 77.6303 43.6866 77.6303 43.6866L80.0321 37.7454L78.1657 39.0615Z" fill="#912338"/>
<path d="M101.224 28.3093C99.4099 26.4131 96.9635 25.3423 94.3312 25.2903C91.7436 25.2531 89.1931 26.2793 87.3341 28.1159C85.4826 29.9377 84.4639 32.3469 84.4639 34.89C84.4639 40.1248 88.7543 44.4525 94.0189 44.5269C96.6438 44.564 99.1199 43.5825 100.994 41.7682C102.823 39.9984 103.849 37.6338 103.879 35.1131C103.946 32.5849 103.001 30.1608 101.224 28.3093ZM94.1825 41.3517C91.0372 41.3517 88.5461 38.5707 88.5164 35.0313C88.5015 33.1277 89.2302 31.2613 90.4869 30.0344C91.5131 29.0231 92.8069 28.5026 94.2271 28.5398C97.3502 28.6959 99.8933 31.5513 99.8933 34.9197L99.8858 35.1205C99.8189 38.5633 97.261 41.3517 94.1825 41.3517Z" fill="#912338"/>
<path d="M149.602 40.2215C148.524 40.9948 146.538 41.5376 144.538 41.6046C142.776 41.6343 141.125 40.9725 139.883 39.7382C138.634 38.4889 137.957 36.7936 137.995 34.9792C137.995 31.3133 140.746 28.5026 144.389 28.4357C145.996 28.4059 147.721 28.919 148.799 29.7369L149.877 30.5623V26.3462L149.461 26.1752C147.624 25.4241 146.323 25.4018 144.531 25.3721L144.36 25.3647C141.385 25.2829 138.656 26.3165 136.701 28.2646C134.946 30.0046 133.987 32.3544 133.987 34.8826C133.987 34.9495 133.987 35.0238 133.987 35.0908C134.024 37.6859 135.043 40.0653 136.849 41.7905C138.813 43.6494 141.564 44.6161 144.583 44.5046L145.178 44.4822C146.821 44.4302 148.122 44.393 149.847 43.7015C149.84 43.7015 149.989 43.6494 149.989 43.6494L150.197 43.5676L150.933 39.2697L149.602 40.2215Z" fill="#912338"/>
<path d="M173.612 28.3241C171.791 26.4206 169.344 25.3424 166.727 25.2829C164.139 25.2457 161.589 26.2719 159.73 28.1085C157.886 29.9303 156.859 32.3395 156.859 34.8826C156.859 40.1174 161.15 44.4451 166.414 44.5194C169.039 44.5566 171.515 43.5751 173.389 41.7607C175.219 39.991 176.237 37.6264 176.274 35.1056C176.274 35.0313 176.274 34.9644 176.274 34.89C176.282 32.451 175.337 30.1236 173.612 28.3241ZM166.571 41.3518C163.425 41.3518 160.934 38.5708 160.904 35.0313C160.882 33.1277 161.618 31.2613 162.868 30.0344C163.901 29.0231 165.195 28.5026 166.608 28.5398C169.79 28.6959 172.274 31.4993 172.274 34.9198V35.128C172.2 38.5633 169.642 41.3518 166.571 41.3518Z" fill="#912338"/>
<path d="M260.419 44.2517L259.891 43.2851C259.675 42.8761 259.586 42.6456 259.489 42.2069C259.363 41.7756 259.325 41.5228 259.325 41.0469V31.648C259.325 27.4393 256.968 25.3944 251.904 25.216H251.897C250.016 25.216 248.187 25.3126 246.305 26.4652L245.986 26.6585V30.5623L247.093 29.5957C248.06 28.7629 249.599 28.3539 251.808 28.3539C253.89 28.3539 255.459 29.3949 255.459 30.778C255.459 31.99 254.834 32.3023 253.429 32.5254C253.421 32.5254 253.109 32.5775 249.822 33.1426C246.216 33.7003 244.625 35.3064 244.506 38.5336C244.498 38.6451 244.498 38.7566 244.498 38.8682C244.498 40.3182 245.004 41.6046 245.963 42.6084C247.175 43.8651 249.027 44.5789 251.057 44.5566C252.425 44.5343 253.994 44.3112 255.526 43.3297C255.526 43.642 255.526 44.3558 255.526 44.3558L260.419 44.2517ZM255.608 35.1428C255.608 35.8938 255.608 38.422 255.608 38.422C255.608 40.3777 253.503 41.5748 251.481 41.6046C250.477 41.6195 249.518 41.2328 248.9 40.571C248.454 40.0877 248.224 39.53 248.224 38.9128L248.239 38.7046C248.32 37.3661 249.28 36.4069 250.819 36.1318C250.834 36.1318 254.105 35.5221 254.105 35.5221C254.12 35.5146 255.028 35.2915 255.608 35.1428Z" fill="#912338"/>
<path d="M123.086 43.6122L122.164 44.7722H128.715L127.867 43.6866C127.644 43.3966 127.577 43.2776 127.532 43.0397C127.346 42.4151 127.332 42.1176 127.332 41.5748V32.6072C127.332 30.7557 126.573 29.0157 125.205 27.707C123.725 26.2867 121.651 25.5282 119.531 25.6323C117.643 25.6918 116.237 26.1752 114.966 27.1418C114.973 26.9113 114.988 26.2495 114.988 26.2495H114.594H110.318L110.928 27.9969C110.928 27.9969 110.936 27.9746 110.943 27.9672C110.958 28.049 110.965 28.1234 110.988 28.2052L111.107 28.8595V42.6158C111.107 42.824 111.084 42.9504 111.017 43.1066C111.01 43.1289 110.757 43.6643 110.75 43.6717C110.742 43.6717 110.422 44.1774 110.422 44.1774L110.043 44.7722H116.044L115.196 43.0025C115.033 42.4746 115.003 42.1251 115.003 41.4335V32.7485C115.003 30.4433 116.617 28.7926 118.922 28.7331C120.275 28.6959 121.643 29.1941 122.506 30.0269C123.101 30.6069 123.42 31.3208 123.42 32.0941V41.493C123.42 41.5079 123.435 42.0433 123.435 42.0433C123.435 42.0284 123.42 43.0099 123.42 43.0099C123.413 43.1884 123.331 43.2999 123.086 43.6122Z" fill="#912338"/>
<path d="M193.875 25.0449C192.499 24.8144 191.332 24.9929 190.194 25.6249C189.711 25.9075 189.324 26.1975 188.997 26.5023C188.997 26.3834 188.997 25.7885 188.997 25.7885H183.562L184.313 26.7031C184.625 27.0823 184.788 27.3054 184.922 27.6921C185.071 28.0564 185.101 28.3241 185.101 28.7257V41.0469C185.101 41.0543 185.108 41.3369 185.108 41.3369C185.108 41.8128 185.116 42.1251 184.989 42.5564C184.945 42.7646 184.878 42.8761 184.736 43.0917C184.722 43.114 183.948 44.3633 183.948 44.3633L185.168 44.3484H190.544L189.875 43.3148C189.592 42.8687 189.473 42.6084 189.354 42.14C189.176 41.5228 189.116 41.1956 189.116 40.5487V32.8749C189.116 31.1795 189.875 29.6031 191.012 28.9562C191.882 28.4803 192.581 28.4134 193.578 28.7257L194.455 28.9934V25.149L193.875 25.0449Z" fill="#912338"/>
<path d="M234.289 18.3006H229.85V22.8885H234.289V18.3006ZM230.088 43.2628L229.285 44.3856H235.315L234.616 43.1661L234.393 42.6679C234.326 42.4299 234.326 42.2961 234.326 41.9169V25.7885H229.069L229.865 26.5767C230.05 26.7626 230.147 26.9039 230.266 27.1716C230.34 27.3723 230.355 27.5434 230.355 27.8036C230.355 27.8408 230.355 28.1531 230.355 28.1531V41.9838C230.355 41.9912 230.355 42.2515 230.355 42.2515L230.318 42.8687C230.296 42.9802 230.229 43.0694 230.088 43.2628Z" fill="#912338"/>
<path d="M219.663 44.3484L218.785 43.0397C218.622 42.8018 218.555 42.6977 218.525 42.5192C218.324 41.0989 218.324 40.2736 218.324 38.7715V16.2111H212.978L213.907 17.3042C213.907 17.3042 214.115 17.6091 214.16 17.676C214.16 17.6909 214.168 17.7206 214.168 17.7206L214.272 18.2188C214.272 18.2188 214.249 24.3608 214.242 26.5172C212.799 25.4911 211.342 25.0524 209.505 25.1416C204.159 25.3424 201.036 28.8372 200.947 34.7339C200.924 37.7379 202.04 40.623 203.936 42.4448C205.542 43.9841 207.617 44.7425 209.929 44.631C211.632 44.5715 212.941 44.17 214.264 43.3371C214.264 43.6494 214.264 44.341 214.264 44.341H219.663V44.3484ZM214.383 32.7708V36.8754C214.383 38.3105 213.944 39.4854 213.104 40.2736C212.301 41.032 211.163 41.3964 209.832 41.3146C208.516 41.2551 207.349 40.6677 206.457 39.6266C205.259 38.2287 204.672 36.1913 204.88 34.1687C205.163 31.6703 206.256 28.6439 209.87 28.4654C211.141 28.4134 212.309 28.8298 213.141 29.6329C213.959 30.4211 214.383 31.4993 214.383 32.7708Z" fill="#912338"/>
<path d="M0 11.1027L6.69971 22.3532C6.26843 20.3529 5.42817 16.4714 5.42817 16.4714C6.35022 17.1852 16.4258 20.695 18.4855 21.3419L18.5078 21.3493C17.1471 19.1557 15.0056 17.0663 13.0053 15.014C14.4256 16.4714 16.9761 17.9065 18.9912 19.1855C19.7422 19.6614 20.5304 20.1373 21.3632 20.5909C21.274 18.2783 20.1437 15.9211 19.296 13.7053C19.9504 15.4155 21.7871 17.2596 23.1924 18.8509C23.5865 19.297 24.0104 19.7432 24.4714 20.1968C25.6016 17.9586 26.0106 15.5345 26.0404 13.274C26.0106 15.3783 26.4493 18.0032 27.6168 20.1819C28.1893 19.6391 28.695 19.0739 29.1783 18.5163C30.4573 17.0142 32.1749 15.304 32.7847 13.7053C31.9147 15.9955 30.9109 18.3155 30.7621 20.6429C34.019 18.9847 36.5844 16.8283 39.0754 15.014C37.0454 16.4937 35.6624 18.5163 34.376 20.1968C34.086 20.5685 33.8108 20.9552 33.558 21.3493L33.6175 21.3344C35.6847 20.6801 45.5967 17.7281 45.5967 17.7281L29.8252 25.4167L45.5 18.0255L44.6449 22.6134L44.8977 23.1711L52.1774 11.1027H0Z" fill="#B8AB85"/>
<path d="M25.6909 0.26122C10.3284 -0.839287 1.7846 1.8748 0.193329 2.17224V6.48503C4.68459 5.48119 12.6335 4.12043 23.936 3.7412H23.9286L23.9583 3.73376C23.9509 3.73376 23.9435 3.7412 23.936 3.7412C39.4398 3.43633 48.9577 5.25811 51.6494 5.91247C51.6569 5.86042 51.6494 5.97196 51.6494 5.91991C51.6494 5.91991 42.7264 1.7707 25.6909 0.26122Z" fill="#912338"/>
<path d="M45.7156 42.4969C39.12 50.5053 30.0037 56.2383 26.3006 57.904C20.694 55.3237 7.30199 46.1256 1.27895 28.2498C1.13767 27.7516 1.00382 27.2459 0.877411 26.7403C0.966641 27.4021 1.04844 28.0639 1.1451 28.7108L1.13767 28.6736C1.36818 29.8039 1.59869 30.9341 1.87382 32.0346C7.48045 51.1596 21.1252 61.1014 26.2783 63.8378C30.2416 61.726 39.2315 54.0299 45.7156 42.4969Z" fill="#912338"/>
<path d="M6.31302 17.6462L9.16839 34.719C9.16839 34.719 15.935 44.8689 25.5496 50.2896L25.557 27.6772L6.31302 17.6462Z" fill="#897334"/>
<path d="M27.0516 27.0823V50.2896C27.2524 50.1781 27.4532 50.0591 27.6539 49.9476C27.825 49.8509 27.9886 49.7468 28.1521 49.6502V26.8221L27.0516 27.0823Z" fill="#897334"/>
<path d="M46.779 16.806C46.779 16.806 30.9778 25.0226 26.1891 25.4465C20.8427 24.9185 6.32047 17.6463 6.32047 17.6463C15.6971 25.4539 25.9288 27.8631 26.3452 27.9895L26.3378 27.9821C26.3378 27.9821 34.0636 26.4726 44.682 18.8955C44.5854 20.5314 44.0946 25.4093 43.2097 30.9118L46.779 16.806C46.8236 16.754 46.7418 16.8357 46.779 16.806Z" fill="#912338"/>
<path d="M157.625 62.2168C157.625 62.7819 157.618 63.6668 157.008 64.4029C156.279 65.2804 155.112 65.5481 154.019 65.5481C153.469 65.5481 151.989 65.5258 151.03 64.2914C150.747 63.9196 150.487 63.414 150.487 62.2689V58.3502H152.279V61.8673C152.279 62.1573 152.279 62.5737 152.405 62.9678C152.636 63.7635 153.35 64.1129 154.049 64.1129C155.082 64.1129 155.558 63.4363 155.707 63.0719C155.833 62.7596 155.833 62.4919 155.833 61.8673V58.3502H157.625V62.2168Z" fill="#897334"/>
<path d="M172.564 65.4588H171.084L167.158 61.0643V65.4588H165.396V58.3576H167.009L170.809 62.544V58.3576H172.556V65.4588H172.564Z" fill="#897334"/>
<path d="M182.178 65.4588H180.386V58.3576H182.178V65.4588Z" fill="#897334"/>
<path d="M193.421 65.5481H192.648L189.213 58.3502H191.139L193.012 62.4027L194.79 58.3502H196.693L193.421 65.5481Z" fill="#897334"/>
<path d="M208.977 65.4588H203.735V58.3576H208.903V59.6812H205.527V61.1163H208.747V62.4473H205.527V64.1576H208.977V65.4588Z" fill="#897334"/>
<path d="M219.298 58.3502C219.945 58.3502 220.592 58.3502 221.165 58.7071C221.536 58.9599 222.094 59.5399 222.094 60.3876C222.094 61.5773 221.179 61.9937 220.875 62.135C221.388 62.3878 221.737 63.1017 221.893 63.466C222.094 63.875 222.392 64.5368 222.577 64.9458L222.815 65.4588H220.875C220.718 65.1465 220.101 63.7412 219.96 63.4586C219.484 62.5663 219.127 62.5663 218.629 62.5663H218.369V65.4588H216.577V58.3576H219.298V58.3502ZM218.361 59.644V61.2724H219.105C219.566 61.2501 219.677 61.2501 219.863 61.146C220.124 61.0122 220.25 60.7519 220.25 60.4619C220.25 59.6514 219.462 59.6514 219.261 59.6514H218.361V59.644Z" fill="#897334"/>
<path d="M234.638 60.2686C234.148 60.0307 233.263 59.5845 232.356 59.5845C231.315 59.5845 231.285 60.0976 231.285 60.1719C231.285 60.5958 231.984 60.8486 233.002 61.213C233.895 61.5327 234.958 62.0755 234.958 63.4511C234.958 65.0945 233.24 65.5555 232.177 65.5555C230.98 65.5555 229.842 64.9904 229.664 64.8714V63.3396C230.281 63.7263 231.091 64.2245 232.133 64.2245C232.363 64.2245 233.196 64.217 233.196 63.5776C233.196 63.1091 232.787 62.9604 231.85 62.6406C230.831 62.2837 229.537 61.7855 229.537 60.2835C229.537 59.1978 230.445 58.2609 232.222 58.2609C232.787 58.2609 233.493 58.3204 234.631 58.8112V60.2686H234.638Z" fill="#897334"/>
<path d="M244.193 65.4588H242.401V58.3576H244.193V65.4588Z" fill="#897334"/>
<path d="M258.433 59.6886H255.868V65.4588H254.068V59.6886H251.495V58.3576H258.433V59.6886Z" fill="#897334"/>
<path d="M269.542 62.135V65.4588H267.758V62.135L264.954 58.3576H267.088L268.65 60.5884L270.212 58.3576H272.338L269.542 62.135Z" fill="#897334"/>
<path d="M300.996 65.4588H299.204V61.1163L297.3 63.4065H297.04L295.136 61.1163V65.4588H293.344V58.3576H294.921L297.174 61.0568L299.457 58.3576H301.011V65.4588H300.996Z" fill="#912338"/>
<path d="M311.927 65.5481C309.465 65.5481 307.874 63.7634 307.874 61.9119C307.874 60.2537 309.25 58.2535 311.956 58.2535C314.47 58.2535 316.031 60.053 316.031 61.9119C316.031 63.5627 314.685 65.5481 311.927 65.5481ZM311.949 59.7704C310.677 59.7704 309.718 60.5437 309.718 61.9491C309.718 63.6445 311.116 64.1129 311.956 64.1129C313.094 64.1129 314.195 63.3619 314.195 61.9565C314.195 60.633 313.332 59.7704 311.949 59.7704Z" fill="#912338"/>
<path d="M330.07 65.4588H328.59L324.664 61.0642V65.4588H322.902V58.3576H324.516L328.315 62.544V58.3576H330.063V65.4588H330.07Z" fill="#912338"/>
<path d="M343.797 59.6886H341.231V65.4588H339.432V59.6886H336.859V58.3576H343.797V59.6886Z" fill="#912338"/>
<path d="M353.315 58.3501C353.962 58.3501 354.608 58.3501 355.181 58.707C355.553 58.9599 356.111 59.5399 356.111 60.3801C356.111 61.5698 355.196 61.9862 354.891 62.1275C355.404 62.3803 355.754 63.0942 355.91 63.4585C356.111 63.8675 356.408 64.5293 356.594 64.9383L356.832 65.4514H354.884C354.727 65.1391 354.11 63.7337 353.969 63.4511C353.493 62.5514 353.136 62.5514 352.638 62.5514H352.378V65.4439H350.586V58.3427H353.315V58.3501ZM352.378 59.644V61.2724H353.121C353.582 61.2501 353.694 61.2501 353.88 61.146C354.14 61.0122 354.266 60.7519 354.266 60.4619C354.266 59.6514 353.478 59.6514 353.277 59.6514H352.378V59.644Z" fill="#912338"/>
<path d="M368.64 65.4588H363.398V58.3576H368.566V59.6812H365.19V61.1163H368.409V62.4473H365.19V64.1575H368.64V65.4588ZM366.201 57.8594H365.153L366.372 55.8889H368.372L366.201 57.8594Z" fill="#912338"/>
<path d="M383.028 65.4588H381.125L380.537 64.0534H377.362L376.834 65.4588H374.96L377.823 58.3576H379.876L383.028 65.4588ZM378.872 60.0604L377.831 62.8116H380.017L378.872 60.0604Z" fill="#912338"/>
<path d="M394.993 65.4588H389.579V58.3576H391.371V64.1352H395V65.4588H394.993Z" fill="#912338"/>
<path d="M90.6877 8.2622C90.6877 8.82732 90.6802 9.71219 90.0705 10.4483C89.3418 11.3258 88.1744 11.5935 87.0813 11.5935C86.531 11.5935 85.0513 11.5712 84.0921 10.3368C83.8095 9.96501 83.5493 9.45937 83.5493 8.31425V4.39555H85.3413V7.91271C85.3413 8.20271 85.3413 8.61912 85.4677 9.01322C85.6982 9.80142 86.4121 10.1583 87.111 10.1583C88.1446 10.1583 88.6205 9.48168 88.7692 9.11732C88.8956 8.80502 88.8956 8.53732 88.8956 7.91271V4.39555H90.6877V8.2622Z" fill="#897334"/>
<path d="M105.626 11.5042H104.147L100.22 7.10965V11.5042H98.4581V4.403H100.072L103.871 8.58938V4.403H105.619V11.5042H105.626Z" fill="#897334"/>
<path d="M115.241 11.5042H113.449V4.403H115.241V11.5042Z" fill="#897334"/>
<path d="M126.484 11.5935H125.711L122.275 4.39555H124.201L126.075 8.44809L127.86 4.39555H129.763L126.484 11.5935Z" fill="#897334"/>
<path d="M142.04 11.5042H136.797V4.403H141.965V5.72658H138.589V7.1617H141.809V8.49272H138.589V10.203H142.04V11.5042Z" fill="#897334"/>
<path d="M152.361 4.39555C153.008 4.39555 153.654 4.39555 154.227 4.75247C154.599 5.00529 155.157 5.58529 155.157 6.43298C155.157 7.62271 154.242 8.03912 153.937 8.1804C154.45 8.43322 154.8 9.14706 154.956 9.51142C155.157 9.92039 155.454 10.5822 155.64 10.9912L155.878 11.5042H153.93C153.773 11.1919 153.156 9.78655 153.015 9.50399C152.539 8.61168 152.182 8.61168 151.684 8.61168H151.424V11.5042H149.632V4.40299H152.361V4.39555ZM151.424 5.68939V7.31784H152.16C152.621 7.29554 152.732 7.29554 152.918 7.19144C153.179 7.05759 153.305 6.79733 153.305 6.50733C153.305 5.69683 152.517 5.69683 152.316 5.69683H151.424V5.68939Z" fill="#897334"/>
<path d="M167.701 6.31404C167.21 6.07609 166.325 5.62994 165.418 5.62994C164.377 5.62994 164.347 6.14301 164.347 6.20993C164.347 6.63378 165.046 6.8866 166.065 7.25095C166.957 7.5707 168.021 8.11351 168.021 9.48915C168.021 11.1325 166.303 11.5935 165.24 11.5935C164.042 11.5935 162.905 11.0284 162.726 10.9094V9.37761C163.343 9.76427 164.154 10.2625 165.195 10.2625C165.425 10.2625 166.258 10.255 166.258 9.61556C166.258 9.1471 165.849 8.99838 164.912 8.67864C163.894 8.32172 162.6 7.82352 162.6 6.32147C162.6 5.23584 163.507 4.29892 165.284 4.29892C165.849 4.29892 166.556 4.35841 167.693 4.84917V6.31404H167.701Z" fill="#897334"/>
<path d="M177.256 11.5042H175.464V4.403H177.256V11.5042Z" fill="#897334"/>
<path d="M191.496 5.73402H188.93V11.5042H187.131V5.73402H184.558V4.403H191.496V5.73402Z" fill="#897334"/>
<path d="M204.07 11.5043H198.827V4.40301H203.995V5.72659H200.619V7.16171H203.839V8.49273H200.619V10.203H204.07V11.5043ZM201.631 3.91224H200.582L201.802 1.94174H203.802L201.631 3.91224Z" fill="#897334"/>
</svg>
